<?xml version="1.0" standalone="no"?>
<!DOCTYPE svg PUBLIC "-//W3C//DTD SVG 20010904//EN"
 "http://www.w3.org/TR/2001/REC-SVG-20010904/DTD/svg10.dtd">
<svg version="1.0" xmlns="http://www.w3.org/2000/svg"
 width="300.000000pt" height="300.000000pt" viewBox="0 0 300.000000 300.000000"
 preserveAspectRatio="xMidYMid meet">
<metadata>
Created by potrace 1.10, written by Peter Selinger 2001-2011
</metadata>
<g transform="translate(0.000000,300.000000) scale(0.100000,-0.100000)"
fill="#000000" stroke="none">
<path d="M1498 2976 c-1 -2 -52 -6 -111 -10 -60 -3 -111 -8 -115 -10 -4 -2
-25 -7 -47 -10 -264 -42 -564 -204 -775 -419 -208 -212 -358 -505 -404 -792
-7 -45 -14 -140 -15 -212 -7 -391 131 -754 391 -1029 236 -248 528 -406 848
-457 124 -20 383 -16 500 7 537 106 956 465 1128 967 22 63 47 151 56 195 20
102 39 306 32 353 -3 20 -8 61 -11 91 -34 307 -164 600 -370 830 -253 282
-626 466 -984 486 -53 3 -101 7 -108 9 -6 2 -13 2 -15 1z m319 -66 c144 -34
303 -88 303 -102 0 -5 7 -8 15 -8 13 0 49 -18 117 -59 14 -9 48 -29 75 -45 26
-16 50 -32 53 -35 3 -4 21 -19 40 -35 70 -56 164 -153 229 -235 67 -86 85
-114 143 -231 18 -36 36 -66 41 -68 4 -2 7 -15 7 -28 0 -13 3 -24 8 -24 12 0
28 -47 57 -165 69 -279 67 -472 -6 -775 -11 -47 -29 -103 -39 -125 -79 -179
-169 -338 -211 -375 -3 -3 -13 -16 -22 -30 -55 -79 -254 -254 -352 -307 -51
-28 -204 -103 -230 -113 -220 -86 -530 -123 -743 -90 -89 14 -273 58 -294 70
-10 6 -25 10 -33 10 -8 0 -15 5 -15 10 0 6 -7 10 -15 10 -14 0 -114 49 -211
104 -184 103 -427 365 -505 544 -8 17 -17 32 -21 32 -5 0 -8 9 -8 20 0 11 -4
20 -9 20 -17 0 -95 273 -121 421 -13 75 -11 360 3 422 46 208 101 387 118 387
5 0 9 7 9 15 0 29 130 230 202 315 93 107 218 215 328 282 105 65 129 78 145
78 7 0 15 4 17 10 5 17 195 79 317 104 64 13 156 24 210 25 52 1 97 3 98 4 8
8 228 -16 300 -33z"/>
<path d="M1370 2860 c-107 -14 -191 -30 -260 -51 -79 -23 -230 -88 -249 -107
-8 -8 -25 -18 -39 -23 -136 -52 -431 -350 -507 -511 -9 -21 -21 -38 -26 -38
-5 0 -9 -6 -9 -14 0 -8 -9 -31 -19 -53 -27 -54 -47 -102 -61 -148 -7 -22 -16
-49 -21 -60 -4 -11 -13 -58 -19 -105 -5 -47 -13 -96 -16 -110 -7 -31 -6 -276
1 -310 3 -14 10 -56 16 -95 24 -164 116 -373 237 -544 46 -65 193 -217 268
-277 96 -77 267 -170 402 -218 229 -82 573 -92 802 -24 61 18 205 71 210 77 3
3 32 20 65 36 56 28 157 93 215 140 32 25 240 234 240 240 0 3 21 35 46 72 26
38 58 93 72 123 14 30 29 57 32 60 13 10 61 145 86 238 62 240 55 516 -20 745
-24 74 -47 132 -67 169 -64 122 -85 158 -126 216 -98 138 -333 352 -431 392
-19 7 -39 18 -45 24 -16 16 -96 52 -190 87 -153 56 -429 89 -587 69z m410 -45
c262 -58 487 -181 676 -369 188 -189 312 -415 369 -676 22 -102 31 -346 16
-451 -98 -693 -690 -1192 -1381 -1166 -74 3 -171 13 -215 22 -460 95 -836 416
-1002 855 -72 189 -100 457 -70 655 60 384 269 717 588 933 133 90 344 174
519 206 111 20 391 15 500 -9z"/>
<path d="M1345 2719 c-519 -71 -939 -461 -1047 -973 -25 -121 -30 -340 -9
-456 69 -388 320 -725 669 -899 415 -208 917 -159 1293 124 421 316 592 870
424 1373 -140 417 -487 724 -927 818 -90 19 -308 26 -403 13z m285 -24 c112
-9 202 -25 227 -41 12 -8 30 -14 39 -14 31 0 259 -116 324 -165 211 -159 364
-372 431 -600 17 -60 35 -119 40 -130 4 -11 11 -45 14 -75 3 -30 9 -68 12 -84
4 -22 2 -27 -8 -21 -11 6 -12 5 -1 -6 6 -7 12 -38 12 -68 0 -72 -20 -223 -31
-235 -5 -6 -9 -21 -9 -34 0 -34 -55 -191 -91 -260 -16 -31 -29 -62 -29 -69 0
-7 -4 -13 -8 -13 -5 0 -15 -12 -23 -27 -55 -110 -235 -292 -374 -381 -43 -27
-223 -109 -265 -121 -25 -7 -53 -17 -62 -22 -10 -5 -33 -9 -51 -9 -18 0 -37
-4 -43 -10 -11 -11 -208 -31 -255 -25 -19 2 -64 6 -101 9 -36 3 -86 10 -110
16 -119 32 -186 52 -213 64 -119 54 -160 76 -237 129 -87 59 -205 168 -256
236 -15 20 -35 45 -44 55 -20 22 -94 161 -121 226 -10 25 -23 53 -28 62 -5 10
-9 27 -9 38 0 11 -4 20 -9 20 -31 0 -59 310 -43 483 16 172 29 226 55 237 12
5 16 9 10 9 -22 1 -19 10 55 171 67 145 220 331 352 427 73 53 189 115 275
148 39 15 79 30 90 35 74 30 105 35 260 46 55 3 102 8 104 10 2 2 13 2 25 -1
12 -2 55 -7 96 -10z"/>
<path d="M1265 2476 c-47 -19 -187 -56 -208 -56 -14 0 -37 5 -51 11 -20 10
-30 8 -60 -10 -43 -27 -116 -108 -116 -130 -1 -21 -24 -51 -39 -51 -16 0 -112
-62 -132 -86 -26 -29 -58 -105 -63 -149 -12 -97 -17 -105 -64 -107 -37 -1 -37
-1 -5 -5 33 -4 33 -4 18 -33 -24 -47 -18 -75 25 -125 23 -26 51 -68 64 -94 26
-51 126 -138 154 -133 9 1 35 5 57 9 55 9 71 34 78 117 7 83 50 216 69 216 5
0 8 6 8 14 0 7 11 25 25 40 14 15 25 30 25 35 0 15 97 98 156 135 33 20 94 49
135 63 64 22 91 26 194 26 80 0 137 -6 172 -16 141 -42 248 -119 336 -239 32
-44 68 -124 60 -132 -4 -3 -2 -6 4 -6 14 0 22 -27 37 -121 21 -133 8 -238 -47
-359 -40 -90 -145 -219 -167 -205 -8 5 -11 4 -6 -3 13 -21 -127 -95 -254 -133
-59 -18 -213 -18 -268 0 -41 14 -44 13 -65 -8 l-22 -22 43 -82 c27 -53 42 -95
42 -119 0 -38 23 -86 73 -151 18 -24 31 -54 34 -81 7 -59 39 -78 119 -70 33 3
75 10 95 15 76 19 189 115 207 176 6 21 21 45 34 53 58 39 71 59 64 103 -4 22
-12 47 -17 54 -11 13 -11 12 95 57 39 17 81 68 88 109 3 15 -1 89 -9 163 l-14
135 99 99 c71 71 109 118 136 169 20 38 48 79 61 89 14 11 25 26 25 34 0 30
-53 118 -87 144 -33 25 -40 26 -104 21 -67 -6 -71 -5 -106 26 -51 44 -73 66
-73 73 0 3 -7 12 -15 20 -8 8 -20 34 -27 57 -7 23 -36 73 -65 112 -29 38 -53
76 -53 83 0 24 -60 102 -83 107 -13 4 -35 1 -51 -4 -44 -17 -72 -13 -136 19
-64 32 -78 31 -114 -9 -24 -26 -32 -26 -81 -1 -22 11 -57 25 -77 31 -36 9 -38
12 -38 50 0 23 -7 47 -15 56 -15 14 -79 27 -100 19z m90 -80 c0 -46 2 -50 30
-59 17 -5 60 -22 97 -38 36 -16 71 -29 77 -29 5 0 18 14 28 30 9 17 24 30 32
30 8 0 44 -14 80 -31 63 -30 68 -31 117 -19 29 7 59 10 68 7 8 -3 31 -38 50
-77 20 -39 51 -89 70 -111 18 -22 44 -67 56 -101 18 -49 36 -74 89 -125 l66
-63 78 0 c43 0 87 -5 98 -11 21 -11 69 -102 69 -131 0 -9 -9 -19 -19 -23 -11
-3 -32 -33 -49 -68 -29 -62 -126 -180 -192 -233 -19 -16 -39 -33 -43 -39 -5
-5 -5 -62 -1 -125 17 -245 12 -259 -96 -297 -85 -29 -88 -33 -66 -92 20 -57
16 -69 -33 -103 -23 -15 -39 -37 -49 -65 -9 -29 -31 -58 -65 -89 -81 -71 -119
-87 -219 -92 -81 -4 -88 -3 -89 14 -1 11 -2 24 -4 29 -1 6 -3 17 -3 27 -1 9
-22 43 -46 75 -36 47 -47 72 -55 122 -6 35 -23 86 -39 114 -16 29 -34 67 -40
86 -11 30 -10 32 6 26 35 -13 117 -25 176 -25 95 0 193 25 294 75 167 83 286
230 332 411 87 338 -128 694 -469 780 -255 64 -542 -47 -690 -266 -67 -100
-111 -227 -111 -325 0 -30 -2 -31 -59 -44 l-60 -13 -55 48 c-33 28 -60 61 -67
82 -6 18 -31 56 -55 83 -24 27 -44 56 -44 64 0 8 16 44 35 81 21 40 35 80 35
102 1 91 50 165 141 211 78 39 89 48 89 75 0 27 46 84 98 120 39 27 41 27 66
11 30 -20 51 -18 171 20 46 14 99 23 125 22 l45 -2 0 -49z"/>
<path d="M1400 2037 c-149 -40 -284 -170 -341 -328 -17 -50 -22 -85 -22 -164
1 -91 4 -107 34 -180 28 -66 47 -93 109 -155 41 -41 91 -83 110 -93 19 -11 35
-18 35 -16 0 1 11 -4 25 -11 14 -8 32 -15 40 -17 8 -1 37 -7 64 -12 147 -27
326 29 427 134 91 95 130 170 150 288 23 136 -14 268 -106 380 -61 73 -145
135 -220 162 -62 23 -240 29 -305 12z m232 -18 c144 -30 272 -131 335 -265 34
-71 38 -89 41 -175 6 -147 -29 -246 -122 -347 -91 -100 -212 -152 -351 -152
-140 0 -254 49 -347 148 -89 94 -128 194 -128 323 0 305 274 530 572 468z"/>
<path d="M1406 1875 l5 -45 -75 0 -76 0 0 -34 c0 -33 2 -35 38 -38 l37 -3 8
-85 c5 -47 6 -136 2 -198 -6 -98 -10 -114 -27 -123 -11 -6 -29 -9 -39 -6 -16
4 -19 0 -19 -29 l0 -34 76 0 77 0 -6 -50 -6 -50 39 0 40 0 0 50 0 50 35 0 35
0 0 -49 0 -49 35 1 c35 1 35 1 35 48 l0 47 50 7 c56 8 109 39 127 75 7 14 13
47 13 74 0 44 -4 53 -40 88 -23 21 -49 38 -59 38 -34 0 -30 13 8 32 74 37 91
130 35 189 -18 19 -45 32 -80 39 l-54 11 0 45 c0 44 0 44 -35 44 -35 0 -35 0
-35 -45 0 -45 0 -45 -35 -45 -35 0 -35 0 -35 45 l0 45 -39 0 -40 0 5 -45z m46
-11 c-6 -31 28 -63 66 -64 32 0 65 36 59 66 -3 16 0 24 9 24 9 0 14 -11 14
-28 0 -36 24 -58 73 -67 20 -4 49 -16 62 -27 22 -17 26 -28 24 -67 -1 -41 -6
-50 -47 -88 -52 -46 -50 -57 14 -88 40 -19 54 -47 54 -111 0 -30 -6 -50 -19
-63 -19 -19 -79 -41 -110 -41 -26 0 -51 -32 -51 -67 0 -18 -4 -33 -10 -33 -5
0 -10 10 -10 23 0 38 -27 67 -63 67 -44 -1 -67 -21 -67 -59 0 -17 -4 -31 -10
-31 -5 0 -10 15 -10 34 0 46 -19 58 -90 57 -65 -1 -81 13 -27 23 52 10 58 35
58 228 0 192 -7 216 -61 232 -35 10 -34 10 26 16 70 6 94 21 94 60 0 14 3 30
6 33 13 13 21 -3 16 -29z"/>
<path d="M1471 1774 c-18 -13 -21 -25 -21 -93 0 -93 13 -111 79 -111 120 0
183 99 112 178 -17 17 -38 32 -48 33 -10 1 -37 3 -59 4 -25 2 -50 -2 -63 -11z
m146 -29 c27 -19 35 -62 18 -102 -15 -34 -28 -40 -107 -45 l-48 -3 0 82 0 83
58 0 c34 0 66 -6 79 -15z"/>
<path d="M1468 1540 c-14 -16 -18 -38 -18 -106 0 -106 6 -114 93 -114 81 0
125 26 146 87 28 80 -26 139 -139 148 -56 4 -67 2 -82 -15z m178 -43 c28 -33
31 -82 9 -114 -18 -26 -72 -43 -132 -43 l-43 0 0 96 0 96 71 -4 c63 -3 74 -7
95 -31z"/>
<path d="M1062 1873 c-23 -34 -62 -109 -62 -120 1 -4 14 17 30 47 17 30 37 65
46 78 9 12 14 22 11 22 -3 0 -14 -12 -25 -27z"/>
<path d="M390 1878 c0 -5 11 -8 25 -8 14 0 25 3 25 8 0 4 -11 7 -25 7 -14 0
-25 -3 -25 -7z"/>
<path d="M468 1883 c7 -3 16 -2 19 1 4 3 -2 6 -13 5 -11 0 -14 -3 -6 -6z"/>
<path d="M981 1694 c0 -11 3 -14 6 -6 3 7 2 16 -1 19 -3 4 -6 -2 -5 -13z"/>
<path d="M972 1645 c0 -16 2 -22 5 -12 2 9 2 23 0 30 -3 6 -5 -1 -5 -18z"/>
<path d="M2092 1640 c0 -14 2 -19 5 -12 2 6 2 18 0 25 -3 6 -5 1 -5 -13z"/>
<path d="M2520 1640 c8 -5 20 -10 25 -10 6 0 3 5 -5 10 -8 5 -19 10 -25 10 -5
0 -3 -5 5 -10z"/>
<path d="M2610 1606 c0 -2 7 -7 16 -10 8 -3 12 -2 9 4 -6 10 -25 14 -25 6z"/>
<path d="M2667 1579 c7 -7 15 -10 18 -7 3 3 -2 9 -12 12 -14 6 -15 5 -6 -5z"/>
<path d="M2102 1550 c0 -19 2 -27 5 -17 2 9 2 25 0 35 -3 9 -5 1 -5 -18z"/>
<path d="M972 1460 c0 -14 2 -19 5 -12 2 6 2 18 0 25 -3 6 -5 1 -5 -13z"/>
<path d="M2092 1460 c0 -14 2 -19 5 -12 2 6 2 18 0 25 -3 6 -5 1 -5 -13z"/>
<path d="M2215 1299 c-4 -6 -5 -12 -2 -15 2 -3 7 2 10 11 7 17 1 20 -8 4z"/>
<path d="M1979 1203 c-13 -16 -12 -17 4 -4 16 13 21 21 13 21 -2 0 -10 -8 -17
-17z"/>
<path d="M2344 1020 c-21 -22 -44 -40 -53 -40 -42 0 -87 -72 -82 -128 2 -13
-7 -41 -18 -63 -30 -56 -28 -102 5 -128 15 -12 33 -21 40 -21 40 0 126 129
170 255 9 28 21 54 26 59 16 19 8 63 -15 84 -13 12 -26 22 -30 22 -3 0 -23
-18 -43 -40z m61 0 c12 -37 -5 -93 -63 -210 -41 -82 -65 -119 -84 -130 -60
-32 -80 27 -38 110 12 24 20 59 20 90 l0 51 53 23 c33 16 58 35 70 55 21 36
33 39 42 11z"/>
</g>
</svg>
